STARTFONT 2.1
FONT -MIT-20FG KST-Medium-R-Normal--20-7-200-200-P-12-ISO8859-1
SIZE 7 200 200
FONTBOUNDINGBOX 12 20 -4 -5
STARTPROPERTIES 17
ADD_STYLE_NAME ""
AVERAGE_WIDTH 12
CHARSET_ENCODING "1"
CHARSET_REGISTRY "ISO8859"
DEFAULT_CHAR 0
FAMILY "20FG KST"
FONT_ASCENT 15
FONT_DESCENT 5
FOUNDRY "MIT"
PIXEL_SIZE 20
POINT_SIZE 7
RESOLUTION_X 200
RESOLUTION_Y 200
SETWIDTH_NAME "Normal"
SLANT "R"
SPACING "P"
WEIGHT_NAME "Medium"
ENDPROPERTIES
CHARS 123
STARTCHAR char1
ENCODING 1
SWIDTH 1704 0
DWIDTH 12 0
BBX 10 20 0 -5
BITMAP
0C00
0C00
0C00
0C00
0C00
0C00
0C00
0C00
0C00
8C40
CCC0
6D80
3F00
1E00
0C00
0000
0000
0000
0000
0000
ENDCHAR
STARTCHAR char2
ENCODING 2
SWIDTH 1704 0
DWIDTH 12 0
BBX 10 20 0 -5
BITMAP
0000
0000
0000
0000
0000
1840
3CC0
6780
C300
C300
C300
C300
6780
3CC0
1840
0000
0000
0000
0000
0000
ENDCHAR
STARTCHAR char3
ENCODING 3
SWIDTH 1704 0
DWIDTH 12 0
BBX 10 20 0 -5
BITMAP
0600
0F00
1980
18C0
30C0
3180
3F00
6380
60C0
60C0
60C0
E380
FE00
C000
C000
0000
0000
0000
0000
0000
ENDCHAR
STARTCHAR char4
ENCODING 4
SWIDTH 1704 0
DWIDTH 12 0
BBX 10 20 0 -5
BITMAP
0000
0000
0000
0000
0000
0C00
0C00
1E00
1200
3300
2100
6180
4080
C0C0
8040
0000
0000
0000
0000
0000
ENDCHAR
STARTCHAR char5
ENCODING 5
SWIDTH 1704 0
DWIDTH 12 0
BBX 10 20 0 -5
BITMAP
0000
0000
0000
0000
0000
0000
0000
0000
FFC0
FFC0
00C0
00C0
00C0
0000
0000
0000
0000
0000
0000
0000
ENDCHAR
STARTCHAR char6
ENCODING 6
SWIDTH 1704 0
DWIDTH 12 0
BBX 7 20 0 -5
BITMAP
00
00
00
00
00
1E
38
60
C0
C0
FC
C0
C0
60
38
1E
00
00
00
00
ENDCHAR
STARTCHAR char7
ENCODING 7
SWIDTH 1704 0
DWIDTH 12 0
BBX 10 20 0 -5
BITMAP
0000
0000
0000
0000
0000
FE00
FF80
63C0
6300
6300
6300
6300
6300
6300
E3C0
0000
0000
0000
0000
0000
ENDCHAR
STARTCHAR char8
ENCODING 8
SWIDTH 1704 0
DWIDTH 12 0
BBX 10 20 0 -5
BITMAP
0000
0000
E000
3000
1800
0C00
0C00
0E00
0E00
1B00
3300
6180
C180
C0C0
80C0
0000
0000
0000
0000
0000
ENDCHAR
STARTCHAR char11
ENCODING 11
SWIDTH 1704 0
DWIDTH 12 0
BBX 10 20 0 -5
BITMAP
0C00
1E00
3F00
6D80
CCC0
8C40
0C00
0C00
0C00
0C00
0C00
0C00
0C00
0C00
0C00
0000
0000
0000
0000
0000
ENDCHAR
STARTCHAR char13
ENCODING 13
SWIDTH 1704 0
DWIDTH 12 0
BBX 10 20 0 -5
BITMAP
0000
0000
0000
0000
FF80
FFC0
01C0
0380
C700
CE00
DC00
F800
F000
FE00
FE00
0000
0000
0000
0000
0000
ENDCHAR
STARTCHAR char14
ENCODING 14
SWIDTH 1704 0
DWIDTH 12 0
BBX 10 20 0 -5
BITMAP
0000
0000
0000
0000
0000
0000
0000
7380
F3C0
CCC0
CCC0
CCC0
F3C0
7380
0000
0000
0000
0000
0000
0000
ENDCHAR
STARTCHAR char15
ENCODING 15
SWIDTH 1704 0
DWIDTH 12 0
BBX 9 20 1 -5
BITMAP
3000
1C00
0600
0300
0300
0180
0F80
3F80
7380
C180
C180
C380
C700
7E00
3800
0000
0000
0000
0000
0000
ENDCHAR
STARTCHAR char16
ENCODING 16
SWIDTH 1704 0
DWIDTH 12 0
BBX 10 20 0 -5
BITMAP
0000
0000
0000
0000
0000
1FC0
3FC0
7000
E000
C000
C000
E000
7000
3FC0
1FC0
0000
0000
0000
0000
0000
ENDCHAR
STARTCHAR char17
ENCODING 17
SWIDTH 1704 0
DWIDTH 12 0
BBX 10 20 0 -5
BITMAP
0000
0000
0000
0000
0000
FE00
FF00
0380
01C0
00C0
00C0
01C0
0380
FF00
FE00
0000
0000
0000
0000
0000
ENDCHAR
STARTCHAR char18
ENCODING 18
SWIDTH 1704 0
DWIDTH 12 0
BBX 10 20 0 -5
BITMAP
3F00
7F80
E1C0
C0C0
C0C0
C0C0
C0C0
C0C0
C0C0
C0C0
C0C0
C0C0
C0C0
C0C0
C0C0
0000
0000
0000
0000
0000
ENDCHAR
STARTCHAR char19
ENCODING 19
SWIDTH 1704 0
DWIDTH 12 0
BBX 10 20 0 -5
BITMAP
C0C0
C0C0
C0C0
C0C0
C0C0
C0C0
C0C0
C0C0
C0C0
C0C0
C0C0
C0C0
E1C0
7F80
3F00
0000
0000
0000
0000
0000
ENDCHAR
STARTCHAR char20
ENCODING 20
SWIDTH 1704 0
DWIDTH 12 0
BBX 10 20 0 -5
BITMAP
C0C0
C0C0
C0C0
C0C0
7F80
7F80
6180
3300
3300
3300
1200
1E00
1E00
0C00
0C00
0000
0000
0000
0000
0000
ENDCHAR
STARTCHAR char21
ENCODING 21
SWIDTH 1704 0
DWIDTH 12 0
BBX 10 20 0 -5
BITMAP
FFC0
FF80
0180
0180
0180
0180
1F80
1F80
0180
0180
0180
0180
0180
FF80
FFC0
0000
0000
0000
0000
0000
ENDCHAR
STARTCHAR char22
ENCODING 22
SWIDTH 1704 0
DWIDTH 12 0
BBX 10 20 0 -5
BITMAP
0000
0000
0000
0000
0000
3F00
6180
E1C0
B340
9E40
8C40
9E40
F3C0
6180
3F00
0000
0000
0000
0000
0000
ENDCHAR
STARTCHAR char23
ENCODING 23
SWIDTH 1704 0
DWIDTH 12 0
BBX 10 20 0 -5
BITMAP
0000
0000
0000
0000
0000
0000
1200
2100
6180
FFC0
FFC0
6180
2100
1200
0000
0000
0000
0000
0000
0000
ENDCHAR
STARTCHAR char24
ENCODING 24
SWIDTH 1704 0
DWIDTH 12 0
BBX 10 20 0 -5
BITMAP
0000
0000
0000
0000
0000
0000
1000
3000
6000
FFC0
FFC0
6000
3000
1000
0000
0000
0000
0000
0000
0000
ENDCHAR
STARTCHAR char25
ENCODING 25
SWIDTH 1704 0
DWIDTH 12 0
BBX 10 20 0 -5
BITMAP
0000
0000
0000
0000
0000
0000
0600
0300
0180
FFC0
FFC0
0180
0300
0600
0000
0000
0000
0000
0000
0000
ENDCHAR
STARTCHAR char26
ENCODING 26
SWIDTH 1704 0
DWIDTH 12 0
BBX 10 20 0 -5
BITMAP
0000
0000
0000
0000
0000
00C0
0180
FFC0
FFC0
0E00
1C00
FFC0
FFC0
6000
C000
0000
0000
0000
0000
0000
ENDCHAR
STARTCHAR char27
ENCODING 27
SWIDTH 1704 0
DWIDTH 12 0
BBX 10 20 0 -5
BITMAP
0000
0C00
0C00
1E00
1E00
3300
6180
E1C0
6180
3300
1E00
1E00
0C00
0C00
0000
0000
0000
0000
0000
0000
ENDCHAR
STARTCHAR char28
ENCODING 28
SWIDTH 1704 0
DWIDTH 12 0
BBX 10 20 0 -5
BITMAP
0000
00C0
0380
0F00
3C00
F000
F000
3C00
0F00
0380
00C0
0000
0000
FFC0
FFC0
0000
0000
0000
0000
0000
ENDCHAR
STARTCHAR char29
ENCODING 29
SWIDTH 1704 0
DWIDTH 12 0
BBX 10 20 0 -5
BITMAP
0000
C000
7000
3C00
0F00
03C0
03C0
0F00
3C00
7000
C000
0000
0000
FFC0
FFC0
0000
0000
0000
0000
0000
ENDCHAR
STARTCHAR char30
ENCODING 30
SWIDTH 1704 0
DWIDTH 12 0
BBX 9 20 0 -5
BITMAP
0000
0000
0000
0000
0000
FF80
FF80
0000
0000
FF80
FF80
0000
0000
FF80
FF80
0000
0000
0000
0000
0000
ENDCHAR
STARTCHAR char31
ENCODING 31
SWIDTH 1704 0
DWIDTH 12 0
BBX 10 20 0 -5
BITMAP
0000
0000
0000
0000
0000
8040
C0C0
4080
6180
2100
3300
1200
1E00
0C00
0C00
0000
0000
0000
0000
0000
ENDCHAR
STARTCHAR char32
ENCODING 32
SWIDTH 1704 0
DWIDTH 12 0
BBX 1 20 0 -5
BITMAP
00
00
00
00
00
00
00
00
00
00
00
00
00
00
00
00
00
00
00
00
ENDCHAR
STARTCHAR char33
ENCODING 33
SWIDTH 1704 0
DWIDTH 12 0
BBX 2 20 4 -5
BITMAP
C0
C0
C0
C0
C0
C0
C0
C0
C0
C0
C0
00
00
C0
C0
00
00
00
00
00
ENDCHAR
STARTCHAR char34
ENCODING 34
SWIDTH 1704 0
DWIDTH 12 0
BBX 6 20 2 -5
BITMAP
CC
CC
CC
CC
CC
CC
00
00
00
00
00
00
00
00
00
00
00
00
00
00
ENDCHAR
STARTCHAR char35
ENCODING 35
SWIDTH 1704 0
DWIDTH 12 0
BBX 11 20 0 -5
BITMAP
0660
0660
0660
0CC0
3FE0
3FE0
1980
1980
3300
3300
FF80
FF80
6600
CC00
CC00
0000
0000
0000
0000
0000
ENDCHAR
STARTCHAR char36
ENCODING 36
SWIDTH 1704 0
DWIDTH 12 0
BBX 10 20 0 -5
BITMAP
0C00
3F00
7F80
CDC0
CCC0
CC00
7C00
3F00
0F80
0CC0
0CC0
CCC0
FF80
7F00
0C00
0000
0000
0000
0000
0000
ENDCHAR
STARTCHAR char37
ENCODING 37
SWIDTH 1704 0
DWIDTH 12 0
BBX 10 20 0 -5
BITMAP
70C0
8980
8980
8B00
7300
0600
0600
0C00
1800
1800
3380
3440
6440
6440
C380
0000
0000
0000
0000
0000
ENDCHAR
STARTCHAR char38
ENCODING 38
SWIDTH 1704 0
DWIDTH 12 0
BBX 10 20 0 -5
BITMAP
0E00
1F00
3180
3180
3180
1F00
3C00
7C00
EE00
C6C0
C3C0
C380
C300
7FC0
3CC0
0000
0000
0000
0000
0000
ENDCHAR
STARTCHAR char39
ENCODING 39
SWIDTH 1704 0
DWIDTH 12 0
BBX 4 20 2 -5
BITMAP
60
F0
F0
30
30
60
C0
80
00
00
00
00
00
00
00
00
00
00
00
00
ENDCHAR
STARTCHAR char40
ENCODING 40
SWIDTH 1704 0
DWIDTH 12 0
BBX 5 20 4 -5
BITMAP
18
30
70
60
E0
C0
C0
C0
C0
C0
E0
60
70
30
18
00
00
00
00
00
ENDCHAR
STARTCHAR char41
ENCODING 41
SWIDTH 1704 0
DWIDTH 12 0
BBX 5 20 1 -5
BITMAP
C0
60
70
30
38
18
18
18
18
18
38
30
70
60
C0
00
00
00
00
00
ENDCHAR
STARTCHAR char42
ENCODING 42
SWIDTH 1704 0
DWIDTH 12 0
BBX 10 20 0 -5
BITMAP
0000
0000
0000
0000
1E00
0C00
CCC0
EDC0
3300
0000
3300
EDC0
CCC0
0C00
1E00
0000
0000
0000
0000
0000
ENDCHAR
STARTCHAR char43
ENCODING 43
SWIDTH 1704 0
DWIDTH 12 0
BBX 10 20 0 -5
BITMAP
0000
0000
0000
0000
0000
0C00
0C00
0C00
0C00
FFC0
FFC0
0C00
0C00
0C00
0C00
0000
0000
0000
0000
0000
ENDCHAR
STARTCHAR char44
ENCODING 44
SWIDTH 1704 0
DWIDTH 12 0
BBX 4 20 2 -5
BITMAP
00
00
00
00
00
00
00
00
00
00
00
00
60
F0
F0
30
30
60
C0
80
ENDCHAR
STARTCHAR char45
ENCODING 45
SWIDTH 1704 0
DWIDTH 12 0
BBX 10 20 0 -5
BITMAP
0000
0000
0000
0000
0000
0000
0000
0000
0000
FFC0
FFC0
0000
0000
0000
0000
0000
0000
0000
0000
0000
ENDCHAR
STARTCHAR char46
ENCODING 46
SWIDTH 1704 0
DWIDTH 12 0
BBX 4 20 2 -5
BITMAP
00
00
00
00
00
00
00
00
00
00
00
60
F0
F0
60
00
00
00
00
00
ENDCHAR
STARTCHAR char47
ENCODING 47
SWIDTH 1704 0
DWIDTH 12 0
BBX 10 20 0 -5
BITMAP
00C0
0180
0180
0300
0300
0600
0600
0C00
1800
1800
3000
3000
6000
6000
C000
0000
0000
0000
0000
0000
ENDCHAR
STARTCHAR char48
ENCODING 48
SWIDTH 1704 0
DWIDTH 12 0
BBX 10 20 0 -5
BITMAP
1E00
3F00
7380
61C0
61C0
6380
6780
6D80
7980
7180
E180
E180
7380
3F00
1E00
0000
0000
0000
0000
0000
ENDCHAR
STARTCHAR char49
ENCODING 49
SWIDTH 1704 0
DWIDTH 12 0
BBX 8 20 1 -5
BITMAP
18
38
78
18
18
18
18
18
18
18
18
18
18
FF
FF
00
00
00
00
00
ENDCHAR
STARTCHAR char50
ENCODING 50
SWIDTH 1704 0
DWIDTH 12 0
BBX 9 20 0 -5
BITMAP
3E00
7F00
C180
C180
0180
0180
0300
0600
0C00
1800
3000
6000
C000
FF80
FF80
0000
0000
0000
0000
0000
ENDCHAR
STARTCHAR char51
ENCODING 51
SWIDTH 1704 0
DWIDTH 12 0
BBX 9 20 0 -5
BITMAP
3E00
7F00
C380
C180
0180
0300
1E00
1F00
0180
0180
0180
C180
C380
7F00
3E00
0000
0000
0000
0000
0000
ENDCHAR
STARTCHAR char52
ENCODING 52
SWIDTH 1704 0
DWIDTH 12 0
BBX 9 20 0 -5
BITMAP
0C00
0C00
1800
1800
3000
3600
6600
6600
C600
C600
FF80
FF80
0600
0600
0600
0000
0000
0000
0000
0000
ENDCHAR
STARTCHAR char53
ENCODING 53
SWIDTH 1704 0
DWIDTH 12 0
BBX 9 20 0 -5
BITMAP
FF00
FF00
C000
C000
C000
C000
FE00
FF00
0380
0180
0180
C180
C380
7F00
3E00
0000
0000
0000
0000
0000
ENDCHAR
STARTCHAR char54
ENCODING 54
SWIDTH 1704 0
DWIDTH 12 0
BBX 9 20 0 -5
BITMAP
3E00
7F00
C180
C180
C000
C000
DE00
FF00
E380
C180
C180
C180
E380
7F00
3E00
0000
0000
0000
0000
0000
ENDCHAR
STARTCHAR char55
ENCODING 55
SWIDTH 1704 0
DWIDTH 12 0
BBX 9 20 0 -5
BITMAP
FF80
FF80
0180
0300
0300
0600
0600
0C00
0C00
1800
1800
3000
3000
6000
6000
0000
0000
0000
0000
0000
ENDCHAR
STARTCHAR char56
ENCODING 56
SWIDTH 1704 0
DWIDTH 12 0
BBX 10 20 0 -5
BITMAP
1E00
3F00
6180
6180
6180
3300
1E00
3F00
7380
E1C0
C0C0
C0C0
E1C0
7F80
3F00
0000
0000
0000
0000
0000
ENDCHAR
STARTCHAR char57
ENCODING 57
SWIDTH 1704 0
DWIDTH 12 0
BBX 9 20 0 -5
BITMAP
3E00
7F00
E380
C180
C180
C180
E380
7F80
3D80
0180
0180
C180
C380
7F00
3E00
0000
0000
0000
0000
0000
ENDCHAR
STARTCHAR char58
ENCODING 58
SWIDTH 1704 0
DWIDTH 12 0
BBX 4 20 2 -5
BITMAP
00
00
00
00
00
60
F0
F0
60
00
00
60
F0
F0
60
00
00
00
00
00
ENDCHAR
STARTCHAR char59
ENCODING 59
SWIDTH 1704 0
DWIDTH 12 0
BBX 4 20 2 -5
BITMAP
00
00
00
00
00
00
60
F0
F0
60
00
00
60
F0
F0
30
30
60
C0
80
ENDCHAR
STARTCHAR char60
ENCODING 60
SWIDTH 1704 0
DWIDTH 12 0
BBX 10 20 0 -5
BITMAP
0000
0000
0000
0000
0000
00C0
0380
0E00
3C00
F000
F000
3C00
0E00
0380
00C0
0000
0000
0000
0000
0000
ENDCHAR
STARTCHAR char61
ENCODING 61
SWIDTH 1704 0
DWIDTH 12 0
BBX 9 20 0 -5
BITMAP
0000
0000
0000
0000
0000
0000
0000
FF80
FF80
0000
0000
FF80
FF80
0000
0000
0000
0000
0000
0000
0000
ENDCHAR
STARTCHAR char62
ENCODING 62
SWIDTH 1704 0
DWIDTH 12 0
BBX 10 20 0 -5
BITMAP
0000
0000
0000
0000
0000
C000
7000
3C00
0F00
03C0
03C0
0F00
3C00
7000
C000
0000
0000
0000
0000
0000
ENDCHAR
STARTCHAR char63
ENCODING 63
SWIDTH 1704 0
DWIDTH 12 0
BBX 8 20 1 -5
BITMAP
3C
7E
E7
83
03
03
06
0C
18
30
30
00
00
30
30
00
00
00
00
00
ENDCHAR
STARTCHAR char64
ENCODING 64
SWIDTH 1704 0
DWIDTH 12 0
BBX 10 20 0 -5
BITMAP
0000
0000
0000
1F00
7F80
60C0
C0C0
CE40
DF40
D940
D940
CFC0
C000
6000
7FC0
1FC0
0000
0000
0000
0000
ENDCHAR
STARTCHAR char65
ENCODING 65
SWIDTH 1704 0
DWIDTH 12 0
BBX 9 20 0 -5
BITMAP
3E00
7F00
E380
C180
C180
C180
C180
FF80
FF80
C180
C180
C180
C180
C180
C180
0000
0000
0000
0000
0000
ENDCHAR
STARTCHAR char66
ENCODING 66
SWIDTH 1704 0
DWIDTH 12 0
BBX 9 20 0 -5
BITMAP
FC00
FE00
C700
C300
C300
C600
FE00
FF00
C300
C180
C180
C180
C380
FF00
FC00
0000
0000
0000
0000
0000
ENDCHAR
STARTCHAR char67
ENCODING 67
SWIDTH 1704 0
DWIDTH 12 0
BBX 9 20 0 -5
BITMAP
3E00
7F00
E380
C180
C000
C000
C000
C000
C000
C000
C000
C180
E380
7F00
3E00
0000
0000
0000
0000
0000
ENDCHAR
STARTCHAR char68
ENCODING 68
SWIDTH 1704 0
DWIDTH 12 0
BBX 9 20 0 -5
BITMAP
FE00
FF00
C380
C180
C180
C180
C180
C180
C180
C180
C180
C180
C380
FF00
FE00
0000
0000
0000
0000
0000
ENDCHAR
STARTCHAR char69
ENCODING 69
SWIDTH 1704 0
DWIDTH 12 0
BBX 9 20 0 -5
BITMAP
FF80
FF80
C000
C000
C000
C000
FE00
FE00
C000
C000
C000
C000
C000
FF80
FF80
0000
0000
0000
0000
0000
ENDCHAR
STARTCHAR char70
ENCODING 70
SWIDTH 1704 0
DWIDTH 12 0
BBX 9 20 0 -5
BITMAP
FF80
FF80
C000
C000
C000
C000
C000
FE00
FE00
C000
C000
C000
C000
C000
C000
0000
0000
0000
0000
0000
ENDCHAR
STARTCHAR char71
ENCODING 71
SWIDTH 1704 0
DWIDTH 12 0
BBX 9 20 0 -5
BITMAP
3E00
7F00
E380
C180
C000
C000
C000
C000
C780
C780
C180
C180
E380
7F00
3E00
0000
0000
0000
0000
0000
ENDCHAR
STARTCHAR char72
ENCODING 72
SWIDTH 1704 0
DWIDTH 12 0
BBX 9 20 0 -5
BITMAP
C180
C180
C180
C180
C180
C180
FF80
FF80
C180
C180
C180
C180
C180
C180
C180
0000
0000
0000
0000
0000
ENDCHAR
STARTCHAR char73
ENCODING 73
SWIDTH 1704 0
DWIDTH 12 0
BBX 6 20 2 -5
BITMAP
FC
FC
30
30
30
30
30
30
30
30
30
30
30
FC
FC
00
00
00
00
00
ENDCHAR
STARTCHAR char74
ENCODING 74
SWIDTH 1704 0
DWIDTH 12 0
BBX 9 20 0 -5
BITMAP
0180
0180
0180
0180
0180
0180
0180
0180
0180
0180
0180
C180
C380
7F00
3E00
0000
0000
0000
0000
0000
ENDCHAR
STARTCHAR char75
ENCODING 75
SWIDTH 1704 0
DWIDTH 12 0
BBX 9 20 0 -5
BITMAP
C180
C300
C600
CC00
D800
F000
E000
E000
F000
D800
CC00
C600
C300
C180
C080
0000
0000
0000
0000
0000
ENDCHAR
STARTCHAR char76
ENCODING 76
SWIDTH 1704 0
DWIDTH 12 0
BBX 9 20 0 -5
BITMAP
C000
C000
C000
C000
C000
C000
C000
C000
C000
C000
C000
C000
C000
FF80
FF80
0000
0000
0000
0000
0000
ENDCHAR
STARTCHAR char77
ENCODING 77
SWIDTH 1704 0
DWIDTH 12 0
BBX 9 20 0 -5
BITMAP
C180
E380
F780
D580
DD80
DD80
C980
C180
C180
C180
C180
C180
C180
C180
C180
0000
0000
0000
0000
0000
ENDCHAR
STARTCHAR char78
ENCODING 78
SWIDTH 1704 0
DWIDTH 12 0
BBX 9 20 0 -5
BITMAP
C180
E180
E180
F180
F180
D980
D980
DD80
CD80
CD80
C780
C780
C380
C380
C180
0000
0000
0000
0000
0000
ENDCHAR
STARTCHAR char79
ENCODING 79
SWIDTH 1704 0
DWIDTH 12 0
BBX 9 20 0 -5
BITMAP
3E00
7F00
E380
C180
C180
C180
C180
C180
C180
C180
C180
C180
E380
7F00
3E00
0000
0000
0000
0000
0000
ENDCHAR
STARTCHAR char80
ENCODING 80
SWIDTH 1704 0
DWIDTH 12 0
BBX 9 20 0 -5
BITMAP
FE00
FF00
C380
C180
C180
C180
C380
FF00
FE00
C000
C000
C000
C000
C000
C000
0000
0000
0000
0000
0000
ENDCHAR
STARTCHAR char81
ENCODING 81
SWIDTH 1704 0
DWIDTH 12 0
BBX 10 20 0 -5
BITMAP
3E00
7F00
E380
C180
C180
C180
C180
C180
C180
C180
C180
C780
E780
7F00
3FC0
00C0
0000
0000
0000
0000
ENDCHAR
STARTCHAR char82
ENCODING 82
SWIDTH 1704 0
DWIDTH 12 0
BBX 9 20 0 -5
BITMAP
FE00
FF00
C380
C180
C180
C380
FF00
FE00
CC00
C600
C600
C300
C300
C180
C180
0000
0000
0000
0000
0000
ENDCHAR
STARTCHAR char83
ENCODING 83
SWIDTH 1704 0
DWIDTH 12 0
BBX 9 20 0 -5
BITMAP
3E00
7F00
C380
C180
C000
C000
7E00
3F00
0380
0180
0180
C180
C380
FF00
7E00
0000
0000
0000
0000
0000
ENDCHAR
STARTCHAR char84
ENCODING 84
SWIDTH 1704 0
DWIDTH 12 0
BBX 10 20 0 -5
BITMAP
FFC0
FFC0
0C00
0C00
0C00
0C00
0C00
0C00
0C00
0C00
0C00
0C00
0C00
0C00
0C00
0000
0000
0000
0000
0000
ENDCHAR
STARTCHAR char85
ENCODING 85
SWIDTH 1704 0
DWIDTH 12 0
BBX 9 20 0 -5
BITMAP
C180
C180
C180
C180
C180
C180
C180
C180
C180
C180
C180
C180
E380
7F00
3E00
0000
0000
0000
0000
0000
ENDCHAR
STARTCHAR char86
ENCODING 86
SWIDTH 1704 0
DWIDTH 12 0
BBX 10 20 0 -5
BITMAP
C0C0
C0C0
C0C0
C0C0
6180
6180
6180
3300
3300
3300
1200
1E00
1E00
0C00
0C00
0000
0000
0000
0000
0000
ENDCHAR
STARTCHAR char87
ENCODING 87
SWIDTH 1704 0
DWIDTH 12 0
BBX 9 20 0 -5
BITMAP
C180
C180
C180
C180
C180
C180
C180
C180
C980
DD80
D580
D580
F780
E380
C180
0000
0000
0000
0000
0000
ENDCHAR
STARTCHAR char88
ENCODING 88
SWIDTH 1704 0
DWIDTH 12 0
BBX 9 20 0 -5
BITMAP
C180
C180
6300
6300
3600
3600
1C00
1C00
1C00
3600
3600
6300
6300
C180
C180
0000
0000
0000
0000
0000
ENDCHAR
STARTCHAR char89
ENCODING 89
SWIDTH 1704 0
DWIDTH 12 0
BBX 10 20 0 -5
BITMAP
C0C0
C0C0
6180
6180
3300
3300
1E00
1E00
0C00
0C00
0C00
0C00
0C00
0C00
0C00
0000
0000
0000
0000
0000
ENDCHAR
STARTCHAR char90
ENCODING 90
SWIDTH 1704 0
DWIDTH 12 0
BBX 10 20 0 -5
BITMAP
FFC0
FFC0
00C0
01C0
0380
0700
0E00
1C00
3800
7000
E000
C000
C000
FFC0
FFC0
0000
0000
0000
0000
0000
ENDCHAR
STARTCHAR char91
ENCODING 91
SWIDTH 1704 0
DWIDTH 12 0
BBX 5 20 4 -5
BITMAP
F8
F8
C0
C0
C0
C0
C0
C0
C0
C0
C0
C0
C0
F8
F8
00
00
00
00
00
ENDCHAR
STARTCHAR char92
ENCODING 92
SWIDTH 1704 0
DWIDTH 12 0
BBX 9 20 0 -5
BITMAP
C000
C000
6000
6000
3000
3000
1800
1800
0C00
0600
0600
0300
0300
0180
0180
0000
0000
0000
0000
0000
ENDCHAR
STARTCHAR char93
ENCODING 93
SWIDTH 1704 0
DWIDTH 12 0
BBX 5 20 0 -5
BITMAP
F8
F8
18
18
18
18
18
18
18
18
18
18
18
F8
F8
00
00
00
00
00
ENDCHAR
STARTCHAR char94
ENCODING 94
SWIDTH 1704 0
DWIDTH 12 0
BBX 9 20 0 -5
BITMAP
0800
1C00
3600
6300
C180
0000
0000
0000
0000
0000
0000
0000
0000
0000
0000
0000
0000
0000
0000
0000
ENDCHAR
STARTCHAR char95
ENCODING 95
SWIDTH 1704 0
DWIDTH 12 0
BBX 12 20 0 -5
BITMAP
0000
0000
0000
0000
0000
0000
0000
0000
0000
0000
0000
0000
0000
0000
0000
0000
FFF0
FFF0
0000
0000
ENDCHAR
STARTCHAR char96
ENCODING 96
SWIDTH 1704 0
DWIDTH 12 0
BBX 4 20 4 -5
BITMAP
20
60
C0
C0
F0
F0
60
00
00
00
00
00
00
00
00
00
00
00
00
00
ENDCHAR
STARTCHAR char97
ENCODING 97
SWIDTH 1704 0
DWIDTH 12 0
BBX 9 20 0 -5
BITMAP
0000
0000
0000
0000
1E00
3F00
6180
0180
1F80
7F80
C180
C380
C780
FD80
7980
0000
0000
0000
0000
0000
ENDCHAR
STARTCHAR char98
ENCODING 98
SWIDTH 1704 0
DWIDTH 12 0
BBX 9 20 0 -5
BITMAP
0000
C000
C000
C000
C000
CE00
DF00
F380
E180
C180
C180
E180
F380
DF00
CE00
0000
0000
0000
0000
0000
ENDCHAR
STARTCHAR char99
ENCODING 99
SWIDTH 1704 0
DWIDTH 12 0
BBX 9 20 0 -5
BITMAP
0000
0000
0000
0000
0000
1F00
7F00
E180
C180
C000
C000
C000
E180
7F80
3F00
0000
0000
0000
0000
0000
ENDCHAR
STARTCHAR char100
ENCODING 100
SWIDTH 1704 0
DWIDTH 12 0
BBX 9 20 0 -5
BITMAP
0000
0180
0180
0180
0180
3D80
7F80
E380
C180
C180
C180
C380
C780
7D80
3980
0000
0000
0000
0000
0000
ENDCHAR
STARTCHAR char101
ENCODING 101
SWIDTH 1704 0
DWIDTH 12 0
BBX 9 20 0 -5
BITMAP
0000
0000
0000
0000
0000
3E00
7F00
E180
C180
FF80
FF80
C000
C180
7F80
3F00
0000
0000
0000
0000
0000
ENDCHAR
STARTCHAR char102
ENCODING 102
SWIDTH 1704 0
DWIDTH 12 0
BBX 6 20 2 -5
BITMAP
00
1C
3C
30
30
30
FC
FC
30
30
30
30
30
30
30
00
00
00
00
00
ENDCHAR
STARTCHAR char103
ENCODING 103
SWIDTH 1704 0
DWIDTH 12 0
BBX 9 20 0 -5
BITMAP
0000
0000
0000
0000
0000
3980
7D80
E780
C380
C180
C180
C180
E380
7F80
3F80
0180
0180
0180
3F00
1E00
ENDCHAR
STARTCHAR char104
ENCODING 104
SWIDTH 1704 0
DWIDTH 12 0
BBX 9 20 0 -5
BITMAP
0000
C000
C000
C000
C000
CE00
DF00
F380
E180
C180
C180
C180
C180
C180
C180
0000
0000
0000
0000
0000
ENDCHAR
STARTCHAR char105
ENCODING 105
SWIDTH 1704 0
DWIDTH 12 0
BBX 2 20 4 -5
BITMAP
00
C0
C0
00
00
C0
C0
C0
C0
C0
C0
C0
C0
C0
C0
00
00
00
00
00
ENDCHAR
STARTCHAR char106
ENCODING 106
SWIDTH 1704 0
DWIDTH 12 0
BBX 5 20 2 -5
BITMAP
00
18
18
00
00
18
18
18
18
18
18
18
18
18
18
18
18
F8
F0
00
ENDCHAR
STARTCHAR char107
ENCODING 107
SWIDTH 1704 0
DWIDTH 12 0
BBX 8 20 0 -5
BITMAP
00
00
C0
C0
C3
C7
CE
DC
F8
F0
F8
DC
CE
C7
C3
00
00
00
00
00
ENDCHAR
STARTCHAR char108
ENCODING 108
SWIDTH 1704 0
DWIDTH 12 0
BBX 2 20 4 -5
BITMAP
00
C0
C0
C0
C0
C0
C0
C0
C0
C0
C0
C0
C0
C0
C0
00
00
00
00
00
ENDCHAR
STARTCHAR char109
ENCODING 109
SWIDTH 1704 0
DWIDTH 12 0
BBX 10 20 0 -5
BITMAP
0000
0000
0000
0000
C000
DB80
FFC0
CCC0
CCC0
CCC0
CCC0
CCC0
CCC0
CCC0
CCC0
0000
0000
0000
0000
0000
ENDCHAR
STARTCHAR char110
ENCODING 110
SWIDTH 1704 0
DWIDTH 12 0
BBX 9 20 0 -5
BITMAP
0000
0000
0000
0000
0000
CE00
DF00
F180
E180
C180
C180
C180
C180
C180
C180
0000
0000
0000
0000
0000
ENDCHAR
STARTCHAR char111
ENCODING 111
SWIDTH 1704 0
DWIDTH 12 0
BBX 9 20 0 -5
BITMAP
0000
0000
0000
0000
0000
3E00
7F00
E380
C180
C180
C180
C180
E380
7F00
3E00
0000
0000
0000
0000
0000
ENDCHAR
STARTCHAR char112
ENCODING 112
SWIDTH 1704 0
DWIDTH 12 0
BBX 9 20 0 -5
BITMAP
0000
0000
0000
0000
0000
CE00
DF00
F380
E180
C180
C180
E180
F380
DF00
CE00
C000
C000
C000
C000
0000
ENDCHAR
STARTCHAR char113
ENCODING 113
SWIDTH 1704 0
DWIDTH 12 0
BBX 9 20 0 -5
BITMAP
0000
0000
0000
0000
0000
3980
7D80
E780
C380
C180
C180
C380
E780
7D80
3980
0180
0180
0180
0180
0000
ENDCHAR
STARTCHAR char114
ENCODING 114
SWIDTH 1704 0
DWIDTH 12 0
BBX 9 20 0 -5
BITMAP
0000
0000
0000
0000
0000
CE00
DF00
F180
E180
C000
C000
C000
C000
C000
C000
0000
0000
0000
0000
0000
ENDCHAR
STARTCHAR char115
ENCODING 115
SWIDTH 1704 0
DWIDTH 12 0
BBX 9 20 0 -5
BITMAP
0000
0000
0000
0000
0000
7F00
FF80
C080
C000
7E00
3F00
0180
C180
FF80
7F00
0000
0000
0000
0000
0000
ENDCHAR
STARTCHAR char116
ENCODING 116
SWIDTH 1704 0
DWIDTH 12 0
BBX 6 20 2 -5
BITMAP
00
00
30
30
30
FC
FC
30
30
30
30
30
30
3C
1C
00
00
00
00
00
ENDCHAR
STARTCHAR char117
ENCODING 117
SWIDTH 1704 0
DWIDTH 12 0
BBX 9 20 0 -5
BITMAP
0000
0000
0000
0000
0000
C180
C180
C180
C180
C180
C180
C380
E780
7D80
3980
0000
0000
0000
0000
0000
ENDCHAR
STARTCHAR char118
ENCODING 118
SWIDTH 1704 0
DWIDTH 12 0
BBX 10 20 0 -5
BITMAP
0000
0000
0000
0000
0000
C0C0
C0C0
6180
6180
3300
3300
1E00
1E00
0C00
0C00
0000
0000
0000
0000
0000
ENDCHAR
STARTCHAR char119
ENCODING 119
SWIDTH 1704 0
DWIDTH 12 0
BBX 9 20 0 -5
BITMAP
0000
0000
0000
0000
0000
C180
C180
C180
C180
C980
DD80
DD80
F780
E380
C180
0000
0000
0000
0000
0000
ENDCHAR
STARTCHAR char120
ENCODING 120
SWIDTH 1704 0
DWIDTH 12 0
BBX 9 20 0 -5
BITMAP
0000
0000
0000
0000
0000
C180
C180
6300
3600
1C00
1C00
3E00
6300
C180
C180
0000
0000
0000
0000
0000
ENDCHAR
STARTCHAR char121
ENCODING 121
SWIDTH 1704 0
DWIDTH 12 0
BBX 9 20 0 -5
BITMAP
0000
0000
0000
0000
0000
C180
C180
C180
C180
C180
C180
C180
C180
7F80
3F80
0180
0180
0180
7F00
3E00
ENDCHAR
STARTCHAR char122
ENCODING 122
SWIDTH 1704 0
DWIDTH 12 0
BBX 9 20 0 -5
BITMAP
0000
0000
0000
0000
0000
FF80
FF80
0300
0600
0C00
1800
3000
6000
FF80
FF80
0000
0000
0000
0000
0000
ENDCHAR
STARTCHAR char123
ENCODING 123
SWIDTH 1704 0
DWIDTH 12 0
BBX 5 20 4 -5
BITMAP
38
60
60
30
30
30
60
E0
60
30
30
30
60
60
38
00
00
00
00
00
ENDCHAR
STARTCHAR char124
ENCODING 124
SWIDTH 1704 0
DWIDTH 12 0
BBX 2 20 4 -5
BITMAP
C0
C0
C0
C0
C0
C0
C0
C0
C0
C0
C0
C0
C0
C0
C0
C0
C0
C0
C0
C0
ENDCHAR
STARTCHAR char125
ENCODING 125
SWIDTH 1704 0
DWIDTH 12 0
BBX 5 20 1 -5
BITMAP
E0
30
30
60
60
60
30
38
30
60
60
60
30
30
E0
00
00
00
00
00
ENDCHAR
STARTCHAR char126
ENCODING 126
SWIDTH 1704 0
DWIDTH 12 0
BBX 10 20 0 -5
BITMAP
0000
0000
0000
0000
0000
0000
0000
0000
3840
7CC0
6D80
CF80
8700
0000
0000
0000
0000
0000
0000
0000
ENDCHAR
ENDFONT
